<?xml version="1.0" encoding="UTF-8"?>
<svg id="Lag_1" data-name="Lag 1" xmlns="http://www.w3.org/2000/svg" xmlns:xlink="http://www.w3.org/1999/xlink" viewBox="0 0 1920 1080">
  <defs>
    <style>
      .cls-1 {
        fill: url(#Ikke-navngivet_forløb_143);
        opacity: .22;
      }

      .cls-2 {
        fill: url(#Ikke-navngivet_forløb_4);
      }

      .cls-3 {
        fill: url(#Ikke-navngivet_forløb_143-2);
        opacity: .5;
      }

      .cls-4 {
        fill: #78b78b;
      }

      .cls-5 {
        fill: url(#Ikke-navngivet_forløb_180);
      }

      .cls-6 {
        fill: url(#Ikke-navngivet_forløb_3);
      }

      .cls-7 {
        fill: url(#Ikke-navngivet_forløb_143-3);
      }

      .cls-8 {
        fill: #a7ca95;
      }
    </style>
    <linearGradient id="Ikke-navngivet_forløb_180" data-name="Ikke-navngivet forløb 180" x1="427.24" y1="126.59" x2="1944.12" y2="1303.66" gradientUnits="userSpaceOnUse">
      <stop offset=".26" stop-color="#c1e0f9"/>
      <stop offset=".43" stop-color="#bedef8" stop-opacity="1"/>
      <stop offset=".53" stop-color="#b7dbf7" stop-opacity=".99"/>
      <stop offset=".6" stop-color="#aad4f6" stop-opacity=".98"/>
      <stop offset=".67" stop-color="#97cbf4" stop-opacity=".97"/>
      <stop offset=".73" stop-color="#7fbff1" stop-opacity=".95"/>
      <stop offset=".78" stop-color="#62b0ed" stop-opacity=".92"/>
      <stop offset=".82" stop-color="#45a2ea" stop-opacity=".9"/>
    </linearGradient>
    <linearGradient id="Ikke-navngivet_forløb_4" data-name="Ikke-navngivet forløb 4" x1="1267.32" y1="240.39" x2="1671.88" y2="1055.47" gradientUnits="userSpaceOnUse">
      <stop offset=".13" stop-color="#e1f0e5" stop-opacity=".4"/>
      <stop offset=".17" stop-color="#daecdf" stop-opacity=".5"/>
      <stop offset=".24" stop-color="#d2e8d7" stop-opacity=".66"/>
      <stop offset=".31" stop-color="#cae4d1" stop-opacity=".78"/>
      <stop offset=".39" stop-color="#c5e1cc" stop-opacity=".88"/>
      <stop offset=".48" stop-color="#c1dfc8" stop-opacity=".95"/>
      <stop offset=".58" stop-color="#bedec6" stop-opacity=".99"/>
      <stop offset=".76" stop-color="#bedec6"/>
    </linearGradient>
    <linearGradient id="Ikke-navngivet_forløb_3" data-name="Ikke-navngivet forløb 3" x1="439.06" y1="519.43" x2="242.35" y2="1365.06" gradientUnits="userSpaceOnUse">
      <stop offset=".07" stop-color="#d7ebdc"/>
      <stop offset=".11" stop-color="#c9e1ce"/>
      <stop offset=".21" stop-color="#a9cbac"/>
      <stop offset=".32" stop-color="#90b991"/>
      <stop offset=".43" stop-color="#7fac7e"/>
      <stop offset=".54" stop-color="#74a573"/>
      <stop offset=".66" stop-color="#71a370"/>
    </linearGradient>
    <radialGradient id="Ikke-navngivet_forløb_143" data-name="Ikke-navngivet forløb 143" cx="149.1" cy="137.09" fx="149.1" fy="137.09" r="84.79" gradientTransform="translate(-95.29 -50.02) scale(2.2 2.06)" gradientUnits="userSpaceOnUse">
      <stop offset="0" stop-color="#fcee8f" stop-opacity=".8"/>
      <stop offset=".32" stop-color="#fce57f" stop-opacity=".85"/>
      <stop offset=".9" stop-color="#fed054" stop-opacity=".98"/>
      <stop offset="1" stop-color="#ffcc4d"/>
    </radialGradient>
    <radialGradient id="Ikke-navngivet_forløb_143-2" data-name="Ikke-navngivet forløb 143" cx="231.58" cy="228.22" fx="231.58" fy="228.22" r="125" gradientTransform="translate(-59.79 -55.56) scale(1.26)" xlink:href="#Ikke-navngivet_forløb_143"/>
    <radialGradient id="Ikke-navngivet_forløb_143-3" data-name="Ikke-navngivet forløb 143" cx="231.58" cy="231.58" fx="231.58" fy="231.58" r="125" gradientTransform="translate(-8.84 -8.84) scale(1.04)" xlink:href="#Ikke-navngivet_forløb_143"/>
  </defs>
  <rect class="cls-5" width="1920" height="1080"/>
  <path class="cls-2" d="M1920,198.63c0-.71-.44-1.35-1.1-1.6-63.23-23.95-132.02-32.92-225.4,24.47-51.7,30.98-101.56,103.06-151.14,181.63-14.1,22.34-24.6,46.75-31.14,72.35-13.47,52.75-27.78,114.59-42.19,177.46-4.41,19.26-15.95,36.13-32.24,47.3-25.76,17.67-54.46,34.31-85.66,50.08-14.2,7.18-26.84,17.1-37.2,29.18-21.81,25.43-46.57,60.11-72.14,97.33-15.33,22.32-34.92,41.36-57.51,56.29-62.42,41.24-119.81,92.83-173.72,144.43-1.11,1.06-.35,2.94,1.19,2.94l906.54-.5c.94,0,1.71-.76,1.71-1.71V198.63Z"/>
  <path class="cls-8" d="M0,1080l1920-1.71v-134.3c-687.06,98.27-1059.11-199.64-1920,0v136.01Z"/>
  <g>
    <path class="cls-6" d="M18.07,1080h-92.34c-2.88,0-5.33-2.15-5.73-5.04-11-79.39,13.12-121.9,87.4-111.74-59.04-6.86-74.69-37.31-66.17-80.9.21-1.08.12-2.2-.27-3.23-37.04-98.66,21.93-110.42,89.53-114.37,5.09-.3,7.29-6.57,3.59-10.12-13.56-13.02-16.24-28.76-16.02-44.9,0-.44.05-.87.15-1.3,5.27-22.08,43.14-37.64,76.42-11.37,3.99,3.15,9.75.05,9.33-5.05-3.31-39.54,21.34-62.99,47.57-62.99,24.79,0,50.65,21.52,53.16,61.83.33,5.39,7.1,7.56,10.33,3.25,22.28-29.69,65.37-40.68,105.56-10.72,31.11,21.57,27.68,58.41,22.49,90.89-.85,5.34,5.34,8.92,9.42,5.41,28.42-24.48,63.91-27.89,94.57,11.8,1.88,2.43,5.33,2.98,7.82,1.2,26.91-19.22,53.18-3.15,56.55,26.59.64,5.67,8.03,7.23,10.8,2.26,20.21-36.26,35.48-44.84,68.83-45.53,41.65-.86,61.88,53.68,58.74,102.34-.01.23-.04.46-.08.69l-2.83,16.01c-.81,4.58,3.78,8.28,7.99,6.38,31.43-14.2,70.87,32.88,44.14,67.42-2.79,3.6-.68,8.91,3.82,9.44,65.71,7.76,72.86,56.71,31.28,99.33-1.07,1.1-2.55,1.71-4.08,1.71l-711.96.72Z"/>
    <path class="cls-4" d="M26.58,900.97c-5.29-2.32-9.45-6.71-11.64-12.1-4.44-10.93-8.52-30,21.69-22.2,41.48,10.71-25.7-22.34,12.54-36.04,13.47-4.83,48.63,8.1,29.9,41.89-19.85,35.82-41.13,33.44-52.49,28.45Z"/>
    <path class="cls-4" d="M173.06,997.14c-.65-5.79-3.58-11.09-8.04-14.79-9.05-7.5-25.91-17.02-27.38,14.44-2.02,43.19-13.61-31.36-37.8,1.54-8.52,11.59-6.59,49.32,30.89,41.15,39.73-8.67,43.72-29.91,42.33-42.34Z"/>
    <path class="cls-4" d="M192.45,783.89c-1.84-5.52-1.42-11.58,1.07-16.84,5.05-10.66,16.32-26.51,30.85,1.35,19.96,38.25-.84-34.23,34.88-14.79,12.58,6.85,26.68,41.85-10.69,50.49-39.62,9.17-52.15-8.36-56.11-20.22Z"/>
    <path class="cls-4" d="M280.01,901.37c1.41-5.65,5.03-10.51,9.94-13.56,9.97-6.2,27.94-13.34,25.2,18.03-3.76,43.07,17.67-29.22,37.25,6.67,6.9,12.64-.05,49.77-36.1,36.57-38.22-13.99-39.33-35.58-36.29-47.71Z"/>
    <path class="cls-4" d="M593.21,929.17c5.29-2.32,9.45-6.71,11.64-12.1,4.44-10.93,8.52-30-21.69-22.2-41.48,10.71,25.7-22.34-12.54-36.04-13.47-4.83-48.63,8.1-29.9,41.89,19.85,35.82,41.13,33.44,52.49,28.45Z"/>
    <path class="cls-4" d="M525.18,1021.75c1.06-5.73-.2-11.67-3.39-16.52-6.48-9.85-19.83-23.94-30.36,5.69-14.47,40.69-3.91-34.01-36.59-9.72-11.51,8.56-20.62,45.2,17.58,48.49,40.5,3.48,50.48-15.65,52.76-27.94Z"/>
  </g>
  <g>
    <circle class="cls-1" cx="232" cy="232" r="180"/>
    <circle class="cls-3" cx="232" cy="232" r="157.5"/>
    <circle class="cls-7" cx="232" cy="232" r="130"/>
  </g>
</svg>