<?xml version="1.0" encoding="UTF-8"?>
<svg id="Lag_1" data-name="Lag 1" xmlns="http://www.w3.org/2000/svg" viewBox="0 0 270 240">
  <defs>
    <style>
      .cls-1 {
        fill: #ec968e;
      }
    </style>
  </defs>
  <path class="cls-1" d="M74.12,183.2c-2.3-10.36-2.26-24.95,7.75-27.41,8.18-2,14.76,6.63,19.22,13.99,4.46,7.36,11.94,15.57,19.78,12.44,8.27-3.31,7.81-15.24,10.53-23.96,4.58-14.69,23.61-22.19,36.49-14.39,9.45,5.72,15.23,17.73,25.9,20.3,8.09,1.95,16.7-2.6,21.72-9.44,5.02-6.84,7-15.56,7.82-24.11,2.01-20.88-2.3-42.37-12.17-60.7-1.8-3.35-3.81-6.67-5.61-10.07-5.25-9.89,2.61-21.83,13.75-20.65,6.73.72,13.38,3.33,18.92,7.35,10.99,7.98,18.08,20.63,22.44,33.76,13.41,40.4,2.61,86.94-22.71,120.69-7.99,10.65-17.77,20.51-30.08,24.98-12.3,4.47-27.52,2.37-36.03-7.85-3.72-4.47-5.96-10.13-9.9-14.39-3.94-4.26-10.82-6.74-15.29-3.07-6.65,5.45-1.73,18.1-7.73,24.3-3.45,3.57-9.06,3.38-13.85,2.41-24.17-4.9-45-24.46-52.03-48.85"/>
  <path class="cls-1" d="M197.33,64.14c2.3,10.36,2.26,24.95-7.75,27.41-8.18,2-14.76-6.63-19.22-13.99-4.46-7.36-11.94-15.57-19.78-12.44-8.27,3.31-7.81,15.24-10.53,23.96-4.58,14.69-23.61,22.19-36.49,14.39-9.45-5.72-15.23-17.73-25.9-20.3-8.09-1.95-16.7,2.6-21.72,9.44-5.02,6.84-7,15.56-7.82,24.11-2.01,20.88,2.3,42.37,12.17,60.7,1.8,3.35,3.81,6.67,5.61,10.07,5.25,9.89-2.61,21.83-13.75,20.65-6.73-.72-13.38-3.33-18.92-7.35-10.99-7.98-18.08-20.63-22.44-33.76-13.41-40.4-2.61-86.94,22.71-120.69,7.99-10.65,17.77-20.51,30.08-24.98,12.3-4.47,27.52-2.37,36.03,7.85,3.72,4.47,5.96,10.13,9.9,14.39,3.94,4.26,10.82,6.74,15.29,3.07,6.65-5.45,1.73-18.1,7.73-24.3,3.45-3.57,9.06-3.38,13.85-2.41,24.17,4.9,45,24.46,52.03,48.85"/>
</svg>